<svg xmlns="http://www.w3.org/2000/svg" viewBox="0 0 100 100" width="32" height="32">
  <!-- 渐变背景 -->
  <defs>
    <linearGradient id="bgGradient" x1="0%" y1="0%" x2="100%" y2="100%">
      <stop offset="0%" style="stop-color:#ff6b9d;stop-opacity:1" />
      <stop offset="100%" style="stop-color:#ff4d8d;stop-opacity:1" />
    </linearGradient>
    <linearGradient id="heartGradient" x1="0%" y1="0%" x2="100%" y2="100%">
      <stop offset="0%" style="stop-color:#ff1a75;stop-opacity:1" />
      <stop offset="100%" style="stop-color:#e6005c;stop-opacity:1" />
    </linearGradient>
  </defs>
  
  <!-- 背景圆形 -->
  <circle cx="50" cy="50" r="45" fill="url(#bgGradient)" stroke="#ff4d8d" stroke-width="2"/>
  
  <!-- 主爱心 -->
  <path d="M50 30 C44 24 32 30 32 42 C32 54 50 68 50 68 C50 68 68 54 68 42 C68 30 56 24 50 30 Z" fill="url(#heartGradient)"/>
  
  <!-- 眼睛 -->
  <circle cx="42" cy="42" r="4" fill="#333"/>
  <circle cx="58" cy="42" r="4" fill="#333"/>
  <circle cx="42" cy="42" r="1.5" fill="#fff"/>
  <circle cx="58" cy="42" r="1.5" fill="#fff"/>
  
  <!-- 微笑 -->
  <path d="M42 52 Q50 62 58 52" stroke="#333" stroke-width="2.5" fill="none" stroke-linecap="round"/>
  
  <!-- 装饰小爱心 -->
  <path d="M22 20 C19 17 15 20 15 24 C15 28 22 32 22 32 C22 32 29 28 29 24 C29 20 25 17 22 20 Z" fill="#ffb3d9"/>
  <path d="M78 20 C75 17 71 20 71 24 C71 28 78 32 78 32 C78 32 85 28 85 24 C85 20 81 17 78 20 Z" fill="#ffb3d9"/>
  
  <!-- 小星星装饰 -->
  <path d="M18 75 L20 77 L18 79 L16 77 Z" fill="#ffd700"/>
  <path d="M82 75 L84 77 L82 79 L80 77 Z" fill="#ffd700"/>
  
  <!-- 眼泪装饰（表示emo） -->
  <circle cx="35" cy="35" r="2" fill="#87ceeb" opacity="0.8"/>
  <circle cx="65" cy="35" r="2" fill="#87ceeb" opacity="0.8"/>
  
  <!-- 小花朵装饰 -->
  <g transform="translate(25, 65)">
    <circle cx="0" cy="0" r="3" fill="#ff69b4"/>
    <circle cx="0" cy="0" r="2" fill="#ff1493"/>
  </g>
  <g transform="translate(75, 65)">
    <circle cx="0" cy="0" r="3" fill="#ff69b4"/>
    <circle cx="0" cy="0" r="2" fill="#ff1493"/>
  </g>
</svg>
